<svg xmlns="http://www.w3.org/2000/svg" viewBox="0 0 66 66" id="jellyfish"><path d="M38.8 9.7c-.5 0-1 .5-1 1 0 .6.4 1 1 1 .5 0 1-.4 1-1 0-.5-.4-1-1-1zm-11.6 0c-.6 0-1 .5-1 1 0 .6.4 1 1 1 .5 0 1-.4 1-1 0-.5-.5-1-1-1z"></path><path d="M57.5 18.4C54.5 8.3 44.2 1 33 1 21.9 1 11.6 8.3 8.5 18.3c-.5 1.6-.1 3.3 1.1 4.6 1.2 1.3 2.9 1.7 4.6 1.3 4.6-1.2 10.4-2.4 17.8-2.4 5.7 0 12.3.7 20.1 2.5 1.5.4 3.2 0 4.4-1.4 1.1-1.2 1.5-2.9 1-4.5zm-30.3-4.7c-1.7 0-3-1.3-3-3s1.3-3 3-3c1.6 0 3 1.3 3 3s-1.4 3-3 3zm11.6 0c-1.7 0-3-1.3-3-3s1.3-3 3-3 3 1.3 3 3-1.3 3-3 3z"></path><path d="M44.4 26.3c.5-.4.9-.9 1.3-1.3-4.8-.8-9.4-1.3-13.8-1.3-4.7 0-8.6.5-11.9 1.1.3.3.6.7.9 1 1.1 16.4-3.5 18.8-3.1 28.8 0 .5.5 1 1 1 .6 0 1-.5 1-1-.4-9.2 3.9-11.9 3.2-27 1.3.9 2.9 1.7 4.6 2.3C25 41 28.5 54 24.5 62c-.2.5 0 1.1.5 1.3.5.2 1.1.1 1.3-.5 4.3-8.7.7-21.6 3.3-32.5.8.2 1.7.3 2.6.3 2.1 14.6-2 15.2-.3 33.4 0 .5.5.9 1 .9.5-.1 1-.5 1-1.1-1.7-17.9 2.4-18.4.3-33.3 1.2-.1 2.3-.3 3.4-.6 1.2 17.5-1.4 17.7 2.1 31.4.1.5.7.9 1.2.7.5-.1.9-.7.7-1.2-3.5-13.5-.8-13.1-2.1-31.6 1-.4 1.9-.9 2.7-1.5-.6 16 4.4 12.9 2.3 24.7-.1.5.3 1.1.8 1.2.5.1 1.1-.2 1.2-.8 1.1-6.5.3-8.9-.6-11.7-.9-2.7-2-6-1.5-14.8z"></path></svg>